<?xml version="1.0" encoding="utf-8"?>
<!-- Generator: Adobe Illustrator 21.0.2, SVG Export Plug-In . SVG Version: 6.00 Build 0)  -->
<svg version="1.1" id="Layer_1" xmlns="http://www.w3.org/2000/svg" xmlns:xlink="http://www.w3.org/1999/xlink" x="0px" y="0px"
	 viewBox="0 0 73 64.4" style="enable-background:new 0 0 73 64.4;" xml:space="preserve">
<style type="text/css">
	.st0{fill:#E8ECEF;}
	.st1{fill:#2B5999;}
	.st2{fill:#FFFFFF;}
	.st3{fill:#C81525;}
	.st4{fill:#F2B913;}
	.st5{fill:#24813C;}
	.st6{fill:#CA1E2E;}
	.st7{fill:#C81626;}
	.st8{fill:#203262;}
	.st9{fill:#C91A24;}
	.st10{fill:#241843;}
	.st11{fill:#FFFFFF;stroke:#C91728;stroke-width:0.1;stroke-linecap:round;}
	.st12{fill:#3195AC;stroke:#42609D;stroke-width:0.1;}
	.st13{fill:none;}
	.st14{fill:#3195AC;}
	.st15{fill:none;stroke:#42609D;stroke-width:0.1;}
	.st16{fill:#FFFFFF;stroke:#FFFFFF;stroke-width:0.1;}
	.st17{fill:#E4DE19;}
	.st18{fill:none;stroke:#393019;stroke-width:0.1;}
	.st19{fill:#393019;}
	.st20{fill:#393019;stroke:#393019;stroke-width:0.1;}
	.st21{fill:#5C4C2A;}
	.st22{fill:#5C4D2A;}
	.st23{fill:#231741;}
	.st24{fill:none;stroke:#231842;stroke-width:0.1;}
	.st25{fill:#910F1F;}
	.st26{fill:none;stroke:#910F1F;stroke-width:0.1;}
	.st27{fill:#910F1F;stroke:#000000;stroke-width:0.1;}
	.st28{stroke:#000000;stroke-width:0.1;}
	.st29{fill:#E1DD19;stroke:#393019;stroke-width:0.1;}
	.st30{fill:#FCFAFA;stroke:#FCFAFA;stroke-width:0.1;}
	.st31{fill:#C91728;stroke:#C91728;stroke-width:0.1;}
	.st32{fill:none;stroke:#000000;stroke-width:0.1;}
	.st33{fill:#FDFDFC;}
	.st34{fill:#231842;}
	.st35{fill:#DFDC0D;}
	.st36{fill:none;stroke:#EEAE15;stroke-width:0.1;}
	.st37{fill:#EEAC16;}
	.st38{fill:#EEAE15;}
	.st39{fill:#C91728;}
	.st40{fill:none;stroke:#C91728;stroke-width:0.1;}
	.st41{fill:#C81626;stroke:#C81626;stroke-width:0.1;}
	.st42{fill:#2B3272;}
	.st43{fill:#C80F27;}
	.st44{fill:#323878;}
	.st45{fill:#F3DC10;}
	.st46{fill:#C91B2A;}
	.st47{fill:#257A3B;}
</style>
<circle class="st0" cx="36.5" cy="32.2" r="30.2"/>
<path class="st1" d="M56.3,29.5c-0.6-0.6-5.1-5.7-5.6-6.3c-0.8-0.8-1.9-1.4-2.9-1.4l-5-0.2c-1,0-1.8,0.8-1.8,1.8v8.2
	c0,1-0.8,1.8-1.8,1.8H16.4c-1,0-1.8,0.8-1.8,1.7v5.3c0.1,0.9,0.9,1.5,1.8,1.5h3.5c0.6-3.2,3.5-5.6,6.9-5.6c1.9,0,3.7,0.7,5,2
	c1,1,1.7,2.2,1.9,3.6h7.4c0.6-3.2,3.5-5.6,6.9-5.6c1.9,0,3.7,0.7,5,2c1,1,1.7,2.2,1.9,3.6h2.6c0.9,0,1.7-0.7,1.8-1.5l0-6.6
	C59.3,32.7,56.9,30.1,56.3,29.5L56.3,29.5z M53.2,31h-9.7c-0.4,0-0.7-0.4-0.7-0.9l0-5.6c0-0.5,0.3-0.9,0.7-0.9l3.7,0.1
	c0.9,0,1.7,0.4,2.4,1.2c0,0,4.3,4.9,4.6,5.2C54.2,30.2,54.5,31,53.2,31L53.2,31z M26.8,38.2c-2.9,0-5.2,2.2-5.2,5c0,2.8,2.3,5,5.2,5
	c2.9,0,5.2-2.2,5.2-5C32,40.5,29.6,38.2,26.8,38.2L26.8,38.2z M26.8,45.4c-1.3,0-2.3-1-2.3-2.2c0-1.2,1-2.2,2.3-2.2
	c1.2,0,2.3,1,2.3,2.2C29,44.4,28,45.4,26.8,45.4L26.8,45.4z M48,38.2c-2.9,0-5.2,2.2-5.2,5c0,2.8,2.3,5,5.2,5c2.9,0,5.2-2.2,5.2-5
	C53.2,40.5,50.9,38.2,48,38.2L48,38.2z M48,45.4c-1.3,0-2.3-1-2.3-2.2c0-1.2,1-2.2,2.3-2.2c1.2,0,2.3,1,2.3,2.2
	C50.2,44.4,49.2,45.4,48,45.4"/>
<g>
	<g>
		<polygon class="st2" points="38.9,30.8 38.8,30.8 30.8,30.8 22.7,30.8 14.6,30.8 14.6,16.3 22.7,16.3 30.8,16.3 38.8,16.3 
			38.9,30.8 38.9,30.8 		"/>
	</g>
</g>
<g>
	<rect x="14.6" y="16.3" class="st5" width="8.1" height="14.5"/>
	<rect x="30.8" y="16.3" class="st6" width="8.1" height="14.5"/>
</g>
</svg>
